<svg id="svg" version="1.1" xmlns="http://www.w3.org/2000/svg" xmlns:xlink="http://www.w3.org/1999/xlink" width="400" height="400" viewBox="0, 0, 400,400"><g id="svgg"><path id="path0" d="M197.800 132.227 C 161.940 168.180,132.534 197.909,132.453 198.291 C 132.291 199.053,200.831 267.600,201.754 267.600 C 202.514 267.600,333.249 137.140,333.116 136.515 C 332.956 135.767,263.995 66.793,263.444 66.829 C 263.200 66.846,233.660 96.275,197.800 132.227 " stroke="none" fill="#facb4c" fill-rule="evenodd"></path><path id="path1" d="M45.300 0.291 C 44.365 0.376,43.600 0.616,43.600 0.823 C 43.600 1.030,42.981 1.200,42.224 1.200 C 41.467 1.200,40.736 1.380,40.600 1.600 C 40.464 1.820,40.003 2.000,39.576 2.000 C 39.149 2.000,38.800 2.180,38.800 2.400 C 38.800 2.620,38.260 2.800,37.600 2.800 C 36.940 2.800,36.400 2.980,36.400 3.200 C 36.400 3.420,36.040 3.600,35.600 3.600 C 35.160 3.600,34.800 3.746,34.800 3.925 C 34.800 4.104,34.178 4.495,33.418 4.793 C 32.658 5.091,32.129 5.485,32.242 5.668 C 32.355 5.850,31.987 6.000,31.424 6.000 C 30.861 6.000,30.400 6.180,30.400 6.400 C 30.400 6.620,30.119 6.800,29.776 6.800 C 29.433 6.800,29.264 6.980,29.400 7.200 C 29.536 7.420,29.277 7.600,28.824 7.600 C 28.371 7.600,28.000 7.744,28.000 7.920 C 28.000 8.095,27.285 8.680,26.411 9.220 C 25.537 9.759,24.817 10.425,24.811 10.700 C 24.805 10.975,24.626 11.200,24.414 11.200 C 23.910 11.200,20.800 14.060,20.800 14.523 C 20.800 14.719,20.302 15.356,19.692 15.940 C 19.083 16.523,18.138 17.855,17.593 18.900 C 17.048 19.945,16.466 20.800,16.301 20.800 C 16.135 20.800,16.000 21.070,16.000 21.400 C 16.000 21.730,15.809 22.000,15.576 22.000 C 15.343 22.000,15.255 22.165,15.380 22.368 C 15.505 22.570,15.336 23.007,15.004 23.339 C 14.672 23.671,14.400 24.326,14.400 24.795 C 14.400 25.264,14.220 25.536,14.000 25.400 C 13.773 25.260,13.600 25.596,13.600 26.176 C 13.600 26.739,13.440 27.200,13.245 27.200 C 13.049 27.200,12.764 27.875,12.611 28.700 C 12.459 29.525,12.094 30.740,11.800 31.400 C 11.222 32.702,10.871 34.390,10.594 37.200 C 10.496 38.190,10.282 39.900,10.118 41.000 C 9.622 44.319,9.811 356.387,10.312 360.800 C 10.862 365.653,11.141 367.117,11.800 368.600 C 12.094 369.260,12.459 370.475,12.611 371.300 C 12.764 372.125,13.049 372.800,13.245 372.800 C 13.440 372.800,13.600 373.261,13.600 373.824 C 13.600 374.404,13.773 374.740,14.000 374.600 C 14.222 374.463,14.404 374.764,14.409 375.276 C 14.414 375.784,14.770 376.650,15.200 377.200 C 15.630 377.750,15.986 378.425,15.991 378.700 C 15.996 378.975,16.152 379.200,16.337 379.200 C 16.523 379.200,17.094 380.016,17.607 381.014 C 18.120 382.012,19.049 383.360,19.670 384.010 C 20.292 384.661,20.800 385.305,20.800 385.443 C 20.800 385.816,24.043 388.800,24.449 388.800 C 24.642 388.800,24.801 389.025,24.803 389.300 C 24.805 389.575,25.525 390.210,26.403 390.712 C 27.281 391.214,28.000 391.799,28.000 392.012 C 28.000 392.225,28.390 392.400,28.867 392.400 C 29.343 392.400,29.616 392.517,29.473 392.661 C 29.169 392.965,31.021 394.000,31.869 394.000 C 32.187 394.000,32.336 394.180,32.200 394.400 C 32.064 394.620,32.334 394.800,32.800 394.800 C 33.266 394.800,33.536 394.980,33.400 395.200 C 33.264 395.420,33.523 395.600,33.976 395.600 C 34.429 395.600,34.800 395.780,34.800 396.000 C 34.800 396.220,35.149 396.400,35.576 396.400 C 36.003 396.400,36.464 396.580,36.600 396.800 C 36.736 397.020,37.287 397.200,37.824 397.200 C 38.361 397.200,38.800 397.380,38.800 397.600 C 38.800 397.820,39.250 398.000,39.800 398.000 C 40.350 398.000,40.800 398.180,40.800 398.400 C 40.800 398.620,41.415 398.800,42.167 398.800 C 42.918 398.800,43.608 399.025,43.700 399.300 C 43.945 400.036,312.055 400.036,312.300 399.300 C 312.392 399.025,312.981 398.800,313.610 398.800 C 314.238 398.800,314.864 398.620,315.000 398.400 C 315.136 398.180,315.787 398.000,316.447 398.000 C 317.145 398.000,317.544 397.833,317.400 397.600 C 317.260 397.373,317.596 397.200,318.176 397.200 C 318.739 397.200,319.200 397.020,319.200 396.800 C 319.200 396.580,319.560 396.400,320.000 396.400 C 320.440 396.400,320.800 396.254,320.800 396.075 C 320.800 395.896,321.434 395.501,322.209 395.197 C 322.983 394.893,323.911 394.319,324.271 393.922 C 324.630 393.525,325.126 393.200,325.374 393.200 C 325.621 393.200,326.083 392.840,326.400 392.400 C 326.717 391.960,327.214 391.600,327.505 391.600 C 328.145 391.600,328.423 391.370,332.169 387.739 C 333.793 386.165,335.242 384.498,335.389 384.033 C 335.537 383.569,335.805 383.279,335.985 383.391 C 336.165 383.502,336.633 383.104,337.024 382.507 C 337.416 381.909,338.059 381.074,338.454 380.650 C 338.849 380.226,339.078 379.726,338.963 379.539 C 338.847 379.353,338.943 379.200,339.176 379.200 C 339.409 379.200,339.600 378.952,339.600 378.649 C 339.600 378.346,339.874 377.870,340.210 377.592 C 340.545 377.314,340.731 376.998,340.624 376.890 C 340.516 376.783,340.692 376.319,341.014 375.858 C 341.336 375.398,341.600 374.696,341.600 374.297 C 341.600 373.898,341.891 373.128,342.246 372.586 C 342.601 372.044,342.736 371.597,342.546 371.594 C 342.356 371.591,342.424 371.445,342.698 371.271 C 342.972 371.098,343.236 370.470,343.285 369.878 C 343.334 369.285,343.515 368.800,343.687 368.800 C 343.859 368.800,344.000 368.181,344.000 367.424 C 344.000 366.667,344.180 365.936,344.400 365.800 C 344.620 365.664,344.800 364.753,344.800 363.776 C 344.800 362.799,344.980 362.000,345.200 362.000 C 345.465 362.000,345.600 332.724,345.600 274.973 L 345.600 187.946 344.700 188.227 C 344.205 188.381,342.990 189.165,342.000 189.967 C 341.010 190.770,339.513 191.961,338.673 192.613 C 335.108 195.384,327.414 201.571,325.200 203.448 C 321.414 206.657,313.789 212.901,307.426 218.000 C 300.644 223.436,300.337 223.741,299.174 226.200 C 297.284 230.197,295.373 231.740,290.545 233.165 C 288.317 233.822,287.081 234.512,284.922 236.304 C 282.259 238.513,280.586 239.879,269.600 248.813 C 266.850 251.049,264.093 253.356,263.473 253.939 L 262.345 255.000 275.873 255.211 C 287.379 255.390,289.745 255.529,291.710 256.142 C 301.747 259.273,302.890 271.893,293.565 276.618 L 291.627 277.600 263.019 277.600 L 234.412 277.600 228.106 282.664 C 224.638 285.449,221.160 288.284,220.378 288.964 C 219.597 289.644,215.917 292.630,212.202 295.600 C 208.486 298.570,204.529 301.819,203.409 302.819 C 200.803 305.144,195.562 307.717,191.293 308.766 C 190.472 308.968,187.280 309.785,184.200 310.581 C 174.837 313.003,166.242 314.325,143.600 316.825 C 139.530 317.275,134.760 317.802,133.000 317.996 C 131.240 318.191,128.720 318.468,127.400 318.611 C 126.080 318.755,123.830 319.203,122.400 319.607 C 120.970 320.010,118.000 320.842,115.800 321.456 L 111.800 322.571 89.014 322.441 C 71.026 322.339,65.772 322.193,64.062 321.747 C 54.018 319.131,52.745 305.384,62.153 301.127 C 64.147 300.224,64.589 300.195,79.200 300.000 L 94.200 299.800 94.430 297.000 C 94.710 293.597,96.214 288.298,98.412 282.972 C 99.314 280.787,100.151 278.685,100.273 278.300 C 100.481 277.640,99.446 277.600,82.347 277.596 L 64.200 277.592 62.192 276.657 C 52.884 272.323,54.013 258.768,63.907 256.065 C 65.797 255.549,69.887 255.401,87.183 255.220 L 108.167 255.000 109.905 249.200 C 110.861 246.010,112.264 241.404,113.022 238.964 C 113.780 236.524,114.400 234.319,114.400 234.064 C 114.400 233.717,108.463 233.600,90.946 233.600 C 64.596 233.600,63.566 233.519,60.529 231.224 C 53.425 225.855,54.422 215.634,62.400 212.031 C 64.157 211.237,64.908 211.217,93.862 211.209 L 123.525 211.200 125.026 208.100 C 127.732 202.515,129.887 199.602,135.630 193.765 C 137.813 191.546,139.600 189.524,139.600 189.273 C 139.600 188.934,129.740 188.788,101.500 188.708 L 63.400 188.600 61.773 187.729 C 53.864 183.496,53.769 172.694,61.600 168.064 L 63.400 167.000 113.131 166.800 L 162.862 166.600 173.471 155.800 L 184.079 145.000 124.540 144.800 C 58.556 144.578,64.410 144.813,60.180 142.224 C 53.866 138.360,54.523 127.518,61.298 123.765 L 63.400 122.600 135.058 122.400 L 206.717 122.200 217.758 111.299 C 223.831 105.304,228.800 100.310,228.800 100.202 C 228.800 100.094,191.675 99.959,146.300 99.903 L 63.800 99.800 62.000 98.865 C 52.868 94.122,53.989 81.178,63.777 78.346 C 64.471 78.146,105.229 77.995,157.953 77.999 L 250.906 78.006 254.928 74.103 C 257.141 71.956,259.805 69.345,260.850 68.300 C 261.894 67.255,263.113 66.400,263.559 66.400 C 264.099 66.400,276.003 77.982,299.228 101.102 L 334.087 135.805 338.042 131.802 C 340.218 129.601,341.996 127.530,341.994 127.200 C 341.992 126.870,326.421 111.037,307.390 92.016 C 288.360 72.994,272.837 57.306,272.895 57.152 C 273.159 56.450,280.854 48.800,281.296 48.800 C 281.570 48.800,297.507 64.505,316.713 83.700 C 335.918 102.895,351.707 118.667,351.799 118.749 C 351.978 118.910,360.403 110.339,360.396 110.002 C 360.394 109.891,344.644 94.058,325.396 74.817 C 306.148 55.577,290.400 39.693,290.400 39.520 C 290.400 38.966,298.296 31.200,298.859 31.200 C 299.158 31.200,315.061 46.860,334.200 66.000 C 353.339 85.140,369.128 100.800,369.287 100.800 C 369.446 100.800,371.435 98.982,373.706 96.760 L 377.836 92.720 342.689 57.566 C 315.739 30.610,307.596 22.244,307.771 21.693 C 308.293 20.046,320.944 8.400,322.210 8.400 C 322.650 8.400,324.800 6.769,324.800 6.436 C 324.800 6.265,323.945 5.692,322.900 5.163 C 321.855 4.633,320.940 4.065,320.867 3.900 C 320.793 3.735,320.388 3.600,319.967 3.600 C 319.545 3.600,319.200 3.420,319.200 3.200 C 319.200 2.980,318.851 2.800,318.424 2.800 C 317.997 2.800,317.536 2.620,317.400 2.400 C 317.264 2.180,316.713 2.000,316.176 2.000 C 315.639 2.000,315.200 1.820,315.200 1.600 C 315.200 1.380,314.660 1.200,314.000 1.200 C 313.310 1.200,312.797 0.988,312.794 0.700 C 312.789 0.334,312.695 0.346,312.442 0.745 C 312.151 1.206,312.069 1.206,311.915 0.745 C 311.744 0.233,50.808 -0.212,45.300 0.291 " stroke="none" fill="#cbd3db" fill-rule="evenodd"></path><path id="path2" d="M272.400 199.251 C 195.038 276.483,199.670 272.113,190.655 276.385 C 184.550 279.278,182.866 280.000,182.228 280.000 C 181.909 280.000,181.536 280.180,181.400 280.400 C 181.264 280.620,180.899 280.800,180.588 280.800 C 180.278 280.800,179.073 281.234,177.912 281.764 C 174.291 283.416,160.635 287.888,151.600 290.381 C 150.610 290.654,149.487 291.040,149.105 291.239 C 148.723 291.438,147.969 291.600,147.429 291.600 C 146.889 291.600,146.336 291.780,146.200 292.000 C 146.064 292.220,145.421 292.400,144.771 292.400 C 144.121 292.400,143.277 292.558,142.895 292.751 C 141.728 293.340,139.392 294.000,138.472 294.000 C 137.992 294.000,137.600 294.180,137.600 294.400 C 137.600 294.620,137.148 294.800,136.595 294.800 C 136.042 294.800,135.277 294.958,134.895 295.151 C 133.739 295.735,131.396 296.400,130.495 296.400 C 130.029 296.400,129.536 296.580,129.400 296.800 C 129.264 297.020,128.659 297.200,128.056 297.200 C 127.453 297.200,126.757 297.403,126.508 297.652 C 126.172 297.988,125.987 297.706,125.788 296.552 C 124.355 288.260,123.186 285.551,119.309 281.535 C 116.320 278.439,112.728 276.460,107.813 275.203 C 102.958 273.962,102.946 273.965,101.532 277.100 C 100.863 278.585,99.957 280.592,99.520 281.560 C 95.290 290.925,93.935 299.128,95.981 302.984 C 96.943 304.797,97.158 305.563,96.878 306.184 C 93.852 312.907,95.720 319.812,100.800 320.684 C 103.503 321.148,111.231 321.000,113.448 320.441 C 114.522 320.171,116.030 319.793,116.800 319.602 C 117.570 319.411,119.280 318.954,120.600 318.588 C 124.114 317.611,126.153 317.242,130.400 316.813 C 134.086 316.441,138.163 315.994,145.200 315.190 C 147.070 314.977,150.310 314.630,152.400 314.419 C 155.644 314.091,164.735 312.978,170.200 312.240 C 173.647 311.774,176.680 311.240,178.400 310.798 C 179.390 310.543,180.876 310.240,181.703 310.125 C 182.529 310.010,183.305 309.755,183.426 309.558 C 183.548 309.361,184.256 309.200,185.000 309.200 C 185.744 309.200,186.464 309.020,186.600 308.800 C 186.736 308.580,187.456 308.400,188.200 308.400 C 188.944 308.400,189.664 308.220,189.800 308.000 C 189.936 307.780,190.489 307.600,191.029 307.600 C 191.569 307.600,192.368 307.420,192.805 307.200 C 193.242 306.980,193.958 306.620,194.395 306.400 C 194.832 306.180,195.443 306.000,195.754 306.000 C 196.655 306.000,200.915 303.642,201.891 302.603 C 202.381 302.082,203.461 301.149,204.291 300.532 C 205.121 299.914,206.070 299.132,206.400 298.793 C 206.730 298.455,208.980 296.570,211.400 294.605 C 213.820 292.641,216.070 290.753,216.400 290.412 C 216.730 290.071,217.659 289.301,218.465 288.702 C 219.271 288.102,220.171 287.377,220.465 287.090 C 220.759 286.802,221.377 286.305,221.837 285.984 C 222.298 285.663,223.468 284.743,224.437 283.940 C 225.407 283.137,227.370 281.557,228.800 280.428 C 230.230 279.299,231.717 278.110,232.105 277.787 C 232.492 277.464,232.895 277.200,233.000 277.200 C 233.174 277.200,234.173 276.432,235.345 275.398 C 235.595 275.177,236.787 274.187,237.994 273.198 C 239.200 272.209,240.550 271.096,240.994 270.725 C 241.437 270.354,242.553 269.454,243.474 268.725 C 244.394 267.996,246.502 266.279,248.158 264.910 C 249.814 263.540,251.491 262.154,251.884 261.829 C 256.468 258.053,258.836 256.080,260.028 255.043 C 261.794 253.507,262.843 252.641,265.400 250.611 C 266.500 249.737,268.047 248.477,268.837 247.811 C 270.467 246.438,271.067 245.957,273.600 243.994 C 274.589 243.228,275.669 242.321,276.000 241.981 C 276.330 241.641,277.230 240.929,278.000 240.400 C 278.770 239.871,279.670 239.144,280.000 238.785 C 280.330 238.425,281.450 237.486,282.489 236.697 C 283.529 235.908,285.059 234.711,285.889 234.036 C 286.720 233.362,289.560 231.079,292.200 228.963 C 294.840 226.847,297.633 224.550,298.407 223.858 C 300.651 221.851,306.836 216.697,308.800 215.197 C 309.790 214.441,310.870 213.546,311.200 213.207 C 311.530 212.868,312.459 212.101,313.265 211.502 C 314.071 210.902,314.971 210.178,315.265 209.893 C 315.559 209.607,316.430 208.933,317.200 208.394 C 318.414 207.545,319.658 206.529,321.356 205.000 C 321.600 204.780,322.430 204.125,323.200 203.545 C 323.970 202.965,324.995 202.155,325.477 201.745 C 325.959 201.335,327.472 200.100,328.839 199.000 C 330.205 197.900,332.082 196.370,333.009 195.600 C 333.937 194.830,335.034 193.929,335.448 193.599 C 338.579 191.096,342.687 187.734,343.103 187.335 C 343.499 186.954,343.584 180.670,343.503 157.612 L 343.400 128.371 272.400 199.251 " stroke="none" fill="#606f77" fill-rule="evenodd"></path><path id="path3" d="M328.000 5.600 C 328.000 5.820,327.282 6.000,326.405 6.000 C 325.028 6.000,324.822 6.113,324.905 6.827 C 324.975 7.434,324.512 7.941,323.172 8.727 C 322.167 9.317,320.797 10.139,320.127 10.554 C 319.457 10.969,316.504 13.718,313.566 16.664 L 308.222 22.020 343.410 57.210 C 362.764 76.565,378.828 92.400,379.110 92.400 C 380.802 92.400,391.600 80.819,391.600 79.004 C 391.600 78.672,391.780 78.400,392.000 78.400 C 392.220 78.400,392.400 78.040,392.400 77.600 C 392.400 77.160,392.580 76.800,392.800 76.800 C 393.020 76.800,393.200 76.260,393.200 75.600 C 393.200 74.940,393.380 74.400,393.600 74.400 C 393.820 74.400,394.000 73.680,394.000 72.800 C 394.000 71.920,394.180 71.200,394.400 71.200 C 394.647 71.200,394.800 69.125,394.800 65.776 C 394.800 62.263,394.659 60.440,394.400 60.600 C 394.158 60.749,394.000 60.204,394.000 59.224 C 394.000 58.331,393.820 57.600,393.600 57.600 C 393.380 57.600,393.200 57.060,393.200 56.400 C 393.200 55.740,393.020 55.200,392.800 55.200 C 392.580 55.200,392.400 54.840,392.400 54.400 C 392.400 53.960,392.220 53.600,392.000 53.600 C 391.780 53.600,391.600 53.240,391.600 52.800 C 391.600 52.360,391.420 52.000,391.200 52.000 C 390.980 52.000,390.798 51.775,390.795 51.500 C 390.788 50.850,388.742 48.378,386.097 45.828 C 384.941 44.713,381.215 41.010,377.818 37.600 C 369.538 29.289,369.338 29.090,363.600 23.437 C 360.850 20.727,356.953 16.821,354.941 14.755 C 350.944 10.654,350.219 10.000,349.666 10.000 C 349.464 10.000,349.077 9.734,348.807 9.408 C 348.224 8.707,346.102 7.600,345.339 7.600 C 345.042 7.600,344.800 7.464,344.800 7.297 C 344.800 6.931,341.933 6.000,340.806 6.000 C 340.363 6.000,340.000 5.820,340.000 5.600 C 340.000 5.351,337.733 5.200,334.000 5.200 C 330.267 5.200,328.000 5.351,328.000 5.600 " stroke="none" fill="#eb5c6c" fill-rule="evenodd"></path><path id="path4" d="M294.276 35.247 C 292.118 37.453,290.411 39.434,290.483 39.650 C 290.671 40.213,360.902 110.400,361.278 110.400 C 361.451 110.400,363.513 108.496,365.860 106.169 L 370.127 101.938 334.766 66.569 C 315.318 47.116,299.135 31.208,298.803 31.218 C 298.471 31.228,296.434 33.041,294.276 35.247 M276.899 52.836 C 274.754 55.056,272.953 56.998,272.895 57.152 C 272.837 57.306,288.360 72.994,307.390 92.016 C 326.421 111.037,341.993 126.871,341.995 127.203 C 341.998 127.535,340.115 129.695,337.812 132.003 C 335.508 134.311,333.618 136.377,333.612 136.594 C 333.605 136.811,335.808 134.786,338.506 132.094 C 341.204 129.402,343.724 127.200,344.106 127.200 C 344.759 127.200,344.799 128.978,344.781 157.100 L 344.762 187.000 341.731 189.400 C 340.065 190.720,338.048 192.346,337.251 193.013 C 335.999 194.060,328.880 199.822,326.643 201.599 C 326.227 201.929,325.327 202.665,324.643 203.234 C 323.959 203.803,320.970 206.219,318.000 208.602 C 310.040 214.991,304.661 219.448,301.105 222.600 C 295.975 227.147,291.575 230.771,288.800 232.736 C 287.370 233.748,282.974 237.191,279.032 240.388 C 275.089 243.585,270.049 247.667,267.832 249.460 C 265.614 251.253,262.731 253.741,261.425 254.988 C 260.119 256.236,254.017 261.339,247.865 266.328 C 241.713 271.318,236.211 275.799,235.639 276.286 C 235.068 276.773,234.446 277.178,234.258 277.186 C 233.894 277.201,231.542 278.956,229.172 280.980 C 228.386 281.651,226.515 283.190,225.013 284.400 C 223.512 285.610,220.464 288.087,218.241 289.904 C 216.019 291.720,212.153 294.870,209.651 296.904 C 207.150 298.937,204.138 301.450,202.959 302.490 C 199.565 305.481,194.797 307.452,185.800 309.585 C 183.820 310.054,181.145 310.701,179.855 311.022 C 174.079 312.462,158.047 314.613,133.800 317.204 C 128.164 317.806,124.323 318.454,120.800 319.398 C 107.620 322.929,99.247 322.928,96.469 319.396 C 94.613 317.037,94.330 311.010,95.856 306.345 C 96.417 304.630,96.426 304.285,95.928 303.687 C 94.943 302.506,94.387 300.798,94.623 299.677 C 94.814 298.774,94.778 298.713,94.405 299.300 C 93.995 299.945,92.840 300.000,79.595 300.000 C 65.937 300.000,65.118 300.042,62.963 300.848 C 52.816 304.645,53.572 319.015,64.062 321.747 C 65.772 322.193,71.026 322.339,89.014 322.441 L 111.800 322.571 115.800 321.456 C 118.000 320.842,120.970 320.010,122.400 319.607 C 123.830 319.203,126.080 318.755,127.400 318.611 C 128.720 318.468,131.240 318.191,133.000 317.996 C 134.760 317.802,139.530 317.275,143.600 316.825 C 166.242 314.325,174.837 313.003,184.200 310.581 C 187.280 309.785,190.472 308.968,191.293 308.766 C 195.562 307.717,200.803 305.144,203.409 302.819 C 204.529 301.819,208.486 298.570,212.202 295.600 C 215.917 292.630,219.597 289.644,220.378 288.964 C 221.160 288.284,224.638 285.449,228.106 282.664 L 234.412 277.600 263.019 277.600 L 291.627 277.600 293.565 276.618 C 302.890 271.893,301.747 259.273,291.710 256.142 C 289.745 255.529,287.379 255.390,275.873 255.211 L 262.345 255.000 263.473 253.939 C 264.093 253.356,266.850 251.049,269.600 248.813 C 280.586 239.879,282.259 238.513,284.922 236.304 C 287.081 234.512,288.317 233.822,290.545 233.165 C 295.373 231.740,297.284 230.197,299.174 226.200 C 300.337 223.741,300.644 223.436,307.426 218.000 C 313.789 212.901,321.414 206.657,325.200 203.448 C 326.643 202.224,333.817 196.425,335.752 194.916 C 336.659 194.210,338.750 192.543,340.400 191.210 C 342.050 189.878,343.895 188.593,344.500 188.355 L 345.600 187.922 345.600 157.166 L 345.600 126.410 349.127 122.905 C 351.067 120.977,352.603 119.409,352.540 119.420 C 352.478 119.431,336.535 103.546,317.113 84.120 C 297.690 64.694,281.574 48.800,281.298 48.800 C 281.023 48.800,279.043 50.616,276.899 52.836 M65.516 78.024 C 54.426 79.690,52.062 93.703,62.000 98.865 L 63.800 99.800 146.479 99.903 L 229.158 100.006 239.679 89.378 C 245.466 83.533,250.260 78.582,250.333 78.375 C 250.416 78.142,216.145 77.998,159.933 77.995 C 110.140 77.992,69.040 77.920,68.600 77.835 C 68.160 77.750,66.772 77.835,65.516 78.024 M63.153 122.952 C 54.874 125.911,53.032 137.850,60.180 142.224 C 64.415 144.816,58.522 144.588,124.517 144.710 L 184.035 144.820 188.317 140.710 C 192.460 136.734,201.129 128.074,204.783 124.261 L 206.567 122.400 135.583 122.418 C 78.592 122.432,64.315 122.537,63.153 122.952 M63.051 167.387 C 54.084 170.583,53.292 183.190,61.773 187.729 L 63.400 188.600 101.800 188.699 L 140.200 188.797 150.908 178.099 C 156.797 172.214,161.732 167.265,161.874 167.100 C 162.397 166.495,64.759 166.779,63.051 167.387 M62.400 212.031 C 52.220 216.629,54.268 231.349,65.341 233.172 C 67.367 233.505,75.009 233.607,91.566 233.521 L 114.931 233.400 115.907 230.600 C 117.273 226.682,120.937 217.432,122.165 214.800 C 124.033 210.798,127.208 211.199,93.700 211.209 C 64.908 211.217,64.157 211.237,62.400 212.031 M64.514 255.982 C 54.068 258.512,52.535 272.160,62.192 276.657 L 64.200 277.592 82.300 277.596 C 92.255 277.598,100.400 277.728,100.400 277.884 C 100.400 278.039,99.753 279.673,98.963 281.513 C 98.172 283.353,97.616 284.949,97.726 285.060 C 97.837 285.170,98.058 284.842,98.218 284.330 C 98.378 283.819,99.000 282.320,99.600 281.000 C 100.200 279.680,100.824 278.150,100.987 277.600 C 101.150 277.050,101.691 275.880,102.189 275.000 C 102.687 274.120,103.376 272.320,103.720 271.000 C 104.063 269.680,105.167 265.774,106.172 262.319 C 107.178 258.865,108.000 255.850,108.000 255.619 C 108.000 254.814,67.957 255.148,64.514 255.982 M96.229 288.629 C 96.081 289.215,96.051 289.784,96.161 289.894 C 96.271 290.004,96.481 289.615,96.629 289.029 C 96.776 288.442,96.806 287.873,96.696 287.763 C 96.586 287.653,96.376 288.042,96.229 288.629 M95.049 292.982 C 94.692 294.402,94.420 296.157,94.445 296.882 C 94.477 297.819,94.637 297.449,94.998 295.600 C 95.278 294.170,95.640 292.415,95.803 291.700 C 96.358 289.270,95.701 290.387,95.049 292.982 " stroke="none" fill="#9babb3" fill-rule="evenodd"></path><path id="path5" d="M324.400 7.147 C 324.400 7.338,323.230 8.179,321.800 9.015 C 319.313 10.469,308.000 21.168,308.000 22.065 C 308.000 22.521,377.822 92.400,378.277 92.400 C 378.454 92.400,362.764 76.565,343.410 57.210 L 308.222 22.020 313.566 16.664 C 316.504 13.718,319.457 10.969,320.127 10.554 C 320.797 10.139,322.160 9.326,323.156 8.748 C 324.917 7.725,325.713 6.800,324.833 6.800 C 324.595 6.800,324.400 6.956,324.400 7.147 M267.830 202.100 C 231.767 238.125,202.037 267.600,201.764 267.600 C 201.166 267.600,134.747 201.646,133.176 199.493 L 132.078 197.987 130.902 199.493 C 130.255 200.322,128.921 202.350,127.938 204.000 C 126.199 206.917,125.810 207.690,122.898 214.000 C 120.814 218.518,116.519 229.506,115.862 232.000 C 115.067 235.016,110.705 249.186,108.843 254.800 C 108.003 257.330,107.090 260.210,106.812 261.200 C 106.534 262.190,106.170 263.450,106.002 264.000 C 105.834 264.550,105.302 266.350,104.819 268.000 C 104.337 269.650,103.755 271.607,103.527 272.349 C 103.028 273.974,103.319 274.231,106.089 274.612 C 116.169 275.999,123.635 283.224,125.393 293.295 C 125.699 295.049,126.046 296.579,126.163 296.697 C 126.432 296.965,129.618 296.155,135.200 294.400 C 136.630 293.950,138.340 293.413,139.000 293.206 C 139.660 292.999,141.820 292.386,143.800 291.843 C 145.780 291.300,148.570 290.495,150.000 290.054 C 151.430 289.613,154.490 288.696,156.800 288.017 C 174.609 282.779,193.525 274.902,200.030 270.015 C 201.195 269.139,229.250 241.335,262.374 208.229 C 336.248 134.395,333.801 136.853,333.581 136.714 C 333.481 136.651,303.894 166.075,267.830 202.100 " stroke="none" fill="#db9b84" fill-rule="evenodd"></path><path id="path6" d="M328.118 142.500 C 248.113 222.929,200.164 270.256,196.600 272.312 C 188.699 276.870,171.135 283.801,156.800 288.017 C 154.490 288.696,151.430 289.613,150.000 290.054 C 148.570 290.495,145.780 291.300,143.800 291.843 C 141.820 292.386,139.660 292.999,139.000 293.206 C 138.340 293.413,136.720 293.922,135.400 294.338 C 134.080 294.753,132.190 295.318,131.200 295.593 C 130.210 295.868,128.878 296.252,128.240 296.447 C 126.551 296.961,126.000 296.884,126.000 296.133 C 126.000 295.767,125.901 295.565,125.781 295.686 C 125.660 295.807,125.683 296.390,125.831 296.982 C 126.024 297.749,126.225 297.935,126.531 297.629 C 126.767 297.393,127.453 297.200,128.056 297.200 C 128.659 297.200,129.264 297.020,129.400 296.800 C 129.536 296.580,130.029 296.400,130.495 296.400 C 131.396 296.400,133.739 295.735,134.895 295.151 C 135.277 294.958,136.042 294.800,136.595 294.800 C 137.148 294.800,137.600 294.620,137.600 294.400 C 137.600 294.180,137.992 294.000,138.472 294.000 C 139.392 294.000,141.728 293.340,142.895 292.751 C 143.277 292.558,144.121 292.400,144.771 292.400 C 145.421 292.400,146.064 292.220,146.200 292.000 C 146.336 291.780,146.889 291.600,147.429 291.600 C 147.969 291.600,148.723 291.438,149.105 291.239 C 149.487 291.040,150.610 290.654,151.600 290.381 C 160.635 287.888,174.291 283.416,177.912 281.764 C 179.073 281.234,180.278 280.800,180.588 280.800 C 180.899 280.800,181.264 280.620,181.400 280.400 C 181.536 280.180,181.909 280.000,182.228 280.000 C 182.866 280.000,184.550 279.278,190.655 276.385 C 199.670 272.113,195.038 276.483,272.400 199.251 L 343.400 128.371 343.503 157.612 C 343.584 180.670,343.499 186.954,343.103 187.335 C 342.687 187.734,338.579 191.096,335.448 193.599 C 335.034 193.929,333.937 194.830,333.009 195.600 C 332.082 196.370,330.205 197.900,328.839 199.000 C 327.472 200.100,325.959 201.335,325.477 201.745 C 324.995 202.155,323.973 202.965,323.206 203.545 C 321.906 204.528,320.080 206.050,319.044 207.013 C 318.800 207.240,317.970 207.864,317.200 208.400 C 316.430 208.936,315.559 209.607,315.265 209.893 C 314.971 210.178,314.071 210.902,313.265 211.502 C 312.459 212.101,311.530 212.868,311.200 213.207 C 310.870 213.546,309.790 214.441,308.800 215.197 C 306.836 216.697,300.651 221.851,298.407 223.858 C 297.633 224.550,294.840 226.847,292.200 228.963 C 289.560 231.079,286.720 233.362,285.889 234.036 C 285.059 234.711,283.529 235.908,282.489 236.697 C 281.450 237.486,280.330 238.425,280.000 238.785 C 279.670 239.144,278.770 239.871,278.000 240.400 C 277.230 240.929,276.330 241.641,276.000 241.981 C 275.669 242.321,274.589 243.228,273.600 243.994 C 271.067 245.957,270.467 246.438,268.837 247.811 C 268.047 248.477,266.500 249.737,265.400 250.611 C 262.843 252.641,261.794 253.507,260.028 255.043 C 258.836 256.080,256.468 258.053,251.884 261.829 C 251.491 262.154,249.814 263.540,248.158 264.910 C 246.502 266.279,244.394 267.996,243.474 268.725 C 242.553 269.454,241.437 270.354,240.994 270.725 C 239.743 271.772,235.897 274.932,235.062 275.600 C 234.649 275.930,234.074 276.425,233.784 276.700 C 233.494 276.975,233.156 277.200,233.033 277.200 C 232.910 277.200,232.492 277.464,232.105 277.787 C 231.717 278.110,230.230 279.299,228.800 280.428 C 227.370 281.557,225.407 283.137,224.437 283.940 C 223.468 284.743,222.298 285.663,221.837 285.984 C 221.377 286.305,220.759 286.802,220.465 287.090 C 220.171 287.377,219.271 288.102,218.465 288.702 C 217.659 289.301,216.730 290.071,216.400 290.412 C 216.070 290.753,213.820 292.641,211.400 294.605 C 208.980 296.570,206.730 298.455,206.400 298.793 C 206.070 299.132,205.121 299.914,204.291 300.532 C 203.461 301.149,202.381 302.082,201.891 302.603 C 200.915 303.642,196.655 306.000,195.754 306.000 C 195.443 306.000,194.832 306.180,194.395 306.400 C 193.958 306.620,193.242 306.980,192.805 307.200 C 192.368 307.420,191.569 307.600,191.029 307.600 C 190.489 307.600,189.936 307.780,189.800 308.000 C 189.664 308.220,188.944 308.400,188.200 308.400 C 187.456 308.400,186.736 308.580,186.600 308.800 C 186.464 309.020,185.744 309.200,185.000 309.200 C 184.256 309.200,183.548 309.361,183.426 309.558 C 183.305 309.755,182.529 310.010,181.703 310.125 C 180.876 310.240,179.390 310.543,178.400 310.798 C 177.410 311.053,175.574 311.388,174.321 311.543 C 173.067 311.698,171.897 311.979,171.721 312.167 C 171.281 312.635,175.107 312.123,179.100 311.180 C 188.074 309.059,189.674 308.644,193.200 307.518 C 198.118 305.948,200.325 304.811,202.959 302.490 C 204.138 301.450,207.150 298.937,209.651 296.904 C 212.153 294.870,216.019 291.720,218.241 289.904 C 220.464 288.087,223.512 285.610,225.013 284.400 C 226.515 283.190,228.386 281.651,229.172 280.980 C 231.542 278.956,233.894 277.201,234.258 277.186 C 234.446 277.178,235.068 276.773,235.639 276.286 C 236.211 275.799,241.713 271.318,247.865 266.328 C 254.017 261.339,260.119 256.236,261.425 254.988 C 262.731 253.741,265.614 251.253,267.832 249.460 C 270.049 247.667,275.089 243.585,279.032 240.388 C 282.974 237.191,287.370 233.748,288.800 232.736 C 291.575 230.771,295.975 227.147,301.105 222.600 C 304.661 219.448,310.040 214.991,318.000 208.602 C 320.970 206.219,323.959 203.803,324.643 203.234 C 325.327 202.665,326.227 201.929,326.643 201.599 C 328.880 199.822,335.999 194.060,337.251 193.013 C 338.048 192.346,340.065 190.720,341.731 189.400 L 344.762 187.000 344.781 157.100 C 344.799 128.398,344.771 127.200,344.069 127.200 C 343.639 127.200,337.074 133.497,328.118 142.500 M101.996 275.300 C 101.560 276.015,101.210 276.780,101.218 277.000 C 101.227 277.220,101.564 276.780,101.967 276.023 C 102.370 275.265,103.038 274.513,103.450 274.351 C 104.130 274.084,104.134 274.054,103.494 274.028 C 103.106 274.013,102.432 274.585,101.996 275.300 M119.200 281.400 C 120.395 282.610,121.463 283.600,121.573 283.600 C 121.683 283.600,120.795 282.610,119.600 281.400 C 118.405 280.190,117.337 279.200,117.227 279.200 C 117.117 279.200,118.005 280.190,119.200 281.400 M94.401 300.281 C 94.399 300.970,95.256 302.882,95.928 303.687 C 96.426 304.285,96.417 304.630,95.856 306.345 C 91.053 321.030,99.063 325.221,120.800 319.398 C 124.323 318.454,128.164 317.806,133.800 317.204 C 145.858 315.916,164.588 313.693,168.200 313.122 C 173.831 312.231,169.519 312.298,162.484 313.210 C 158.808 313.687,154.180 314.240,152.200 314.439 C 150.220 314.638,147.070 314.976,145.200 315.190 C 138.318 315.977,134.109 316.438,130.400 316.813 C 126.153 317.242,124.114 317.611,120.600 318.588 C 119.280 318.954,117.570 319.411,116.800 319.602 C 116.030 319.793,114.522 320.171,113.448 320.441 C 111.231 321.000,103.503 321.148,100.800 320.684 C 95.725 319.813,93.859 312.937,96.868 306.200 C 97.136 305.600,96.874 304.702,95.814 302.600 C 95.038 301.060,94.402 300.017,94.401 300.281 " stroke="none" fill="#74848c" fill-rule="evenodd"></path><path id="path7" d="M319.506 10.107 C 318.244 11.038,317.209 11.969,317.206 12.175 C 317.203 12.381,317.695 12.091,318.300 11.531 C 318.905 10.970,320.117 10.037,320.993 9.456 C 321.869 8.875,322.409 8.403,322.193 8.407 C 321.977 8.411,320.768 9.176,319.506 10.107 M312.068 16.966 C 309.523 19.565,307.611 21.846,307.625 22.265 C 307.648 22.921,307.686 22.913,307.981 22.185 C 308.163 21.737,310.250 19.441,312.620 17.082 C 314.989 14.724,316.840 12.707,316.732 12.599 C 316.624 12.491,314.525 14.456,312.068 16.966 M315.986 30.922 C 317.189 32.175,318.319 33.200,318.497 33.200 C 318.675 33.200,318.046 32.435,317.099 31.500 C 314.391 28.827,313.563 28.396,315.986 30.922 M318.800 33.725 C 318.800 33.794,319.378 34.379,320.085 35.025 C 321.223 36.066,320.978 35.430,319.729 34.102 C 319.290 33.635,318.800 33.436,318.800 33.725 M323.200 37.767 C 323.200 38.188,324.405 39.328,324.621 39.112 C 324.722 39.011,324.444 38.602,324.002 38.202 C 323.561 37.803,323.200 37.607,323.200 37.767 M327.787 42.600 C 329.437 44.250,330.920 45.600,331.084 45.600 C 331.247 45.600,330.039 44.250,328.400 42.600 C 326.761 40.950,325.278 39.600,325.104 39.600 C 324.930 39.600,326.137 40.950,327.787 42.600 M333.771 48.711 C 334.415 49.415,335.021 49.912,335.118 49.815 C 335.311 49.622,334.653 48.934,333.398 48.015 C 332.959 47.694,333.127 48.007,333.771 48.711 M335.600 50.299 C 335.600 50.483,336.452 51.436,337.493 52.417 C 338.535 53.398,338.940 53.671,338.393 53.023 C 336.714 51.035,335.600 49.948,335.600 50.299 M348.370 63.312 C 348.903 63.910,349.501 64.400,349.698 64.400 C 350.086 64.400,349.472 63.750,348.198 62.812 C 347.613 62.381,347.658 62.514,348.370 63.312 M351.791 66.791 C 352.869 67.886,353.820 68.713,353.904 68.629 C 354.093 68.440,350.482 64.800,350.105 64.800 C 349.954 64.800,350.712 65.696,351.791 66.791 M260.537 68.530 C 255.758 73.325,233.709 95.354,210.000 119.020 C 196.030 132.965,184.471 144.516,184.312 144.687 C 183.687 145.367,158.016 171.158,148.988 180.179 C 129.717 199.431,128.603 200.736,124.898 208.400 C 122.335 213.704,122.505 214.337,125.114 209.200 C 129.581 200.405,126.511 203.657,197.117 132.900 C 233.394 96.545,263.259 66.800,263.484 66.800 C 263.709 66.800,279.577 82.499,298.747 101.687 C 317.916 120.874,333.600 136.288,333.600 135.939 C 333.600 134.876,264.517 66.395,263.481 66.430 C 262.979 66.447,261.712 67.351,260.537 68.530 M354.400 69.038 C 354.400 69.435,362.041 76.893,362.241 76.692 C 362.327 76.606,360.598 74.782,358.399 72.638 C 356.199 70.494,354.400 68.875,354.400 69.038 M366.800 81.524 C 366.800 81.948,368.345 83.397,368.549 83.164 C 368.628 83.074,368.267 82.589,367.746 82.086 C 367.226 81.583,366.800 81.330,366.800 81.524 M371.800 86.800 C 373.550 88.560,375.070 90.000,375.179 90.000 C 375.288 90.000,374.212 88.798,372.788 87.330 C 371.365 85.861,369.988 84.421,369.729 84.130 C 369.469 83.838,369.114 83.600,368.938 83.600 C 368.762 83.600,370.050 85.040,371.800 86.800 M373.719 96.737 C 370.972 99.418,369.386 101.253,369.565 101.543 C 369.822 101.959,379.200 93.277,379.200 92.623 C 379.200 91.756,377.566 92.982,373.719 96.737 M356.080 114.653 C 353.819 116.992,352.038 119.107,352.123 119.353 C 352.253 119.730,361.200 111.074,361.200 110.571 C 361.200 109.747,359.556 111.058,356.080 114.653 M121.458 216.342 C 120.876 217.639,120.408 218.858,120.418 219.050 C 120.428 219.243,120.970 218.247,121.622 216.837 C 122.274 215.428,122.742 214.209,122.662 214.129 C 122.582 214.049,122.040 215.045,121.458 216.342 M118.631 223.231 C 117.824 225.247,117.230 226.964,117.312 227.046 C 117.394 227.128,118.119 225.542,118.923 223.523 C 119.727 221.504,120.320 219.787,120.242 219.708 C 120.163 219.629,119.438 221.214,118.631 223.231 M115.106 232.707 C 114.409 234.326,113.953 235.770,110.372 247.698 C 108.090 255.296,107.602 257.323,108.375 256.000 C 108.750 255.357,115.076 235.127,115.626 232.811 C 116.070 230.941,115.882 230.903,115.106 232.707 " stroke="none" fill="#cebb98" fill-rule="evenodd"></path></g></svg>